<?xml version="1.0" encoding="UTF-8" standalone="no"?>
<svg width="295px" height="500px" viewBox="0 0 295 500" version="1.1" xmlns="http://www.w3.org/2000/svg" xmlns:xlink="http://www.w3.org/1999/xlink">
    <!-- Generator: Sketch 3.8.3 (29802) - http://www.bohemiancoding.com/sketch -->
    <title>Homer Logo</title>
    <desc>Light Bulb Image</desc>
    <defs></defs>
    <g id="Homepage" stroke="none" stroke-width="1" fill="none" fill-rule="evenodd">
        <g id="Light-Bulb-Copy" fill="#333333">
            <path d="M170.392225,216.776013 L122.85043,216.776013 L122.85043,185.111274 L118.814624,185.111274 L118.814624,392.931113 L122.85043,392.931113 L122.85043,220.774086 L170.392225,220.774086 L170.392225,390.132462 L174.428031,390.132462 L174.428031,185.111274 L170.392225,185.111274 L170.392225,216.776013 Z" id="Combined-Shape"></path>
            <path d="M146.906913,496.866193 C146.72176,496.868616 146.572899,496.8706 146.241099,496.87505 C141.840041,496.934074 139.894573,496.932206 137.482218,496.825475 C134.328715,496.685954 131.567292,496.363366 128.953333,495.790146 C125.993891,495.140554 124.116787,493.847053 122.835864,491.455639 C120.705158,487.480144 118.426327,484.364248 115.704051,481.898977 C112.620825,479.106832 108.995703,477.193917 104.65231,476.169551 C102.124191,475.573251 99.8662062,474.286532 97.6622249,472.292339 C95.8793117,470.679133 94.3232567,468.837318 92.0022181,465.746581 C91.7538326,465.415826 91.7469213,465.406572 91.0666575,464.494791 C90.6446234,463.928818 90.4031579,463.466453 90.3234954,463.137141 C90.2999137,463.039658 90.2953119,462.974821 90.2999192,462.938956 C90.2997709,462.94011 90.2944138,462.954761 90.2865944,462.96671 C90.2878634,462.964771 90.301822,462.951034 90.3397968,462.925483 C90.4145943,462.875156 90.526639,462.822487 90.6765374,462.773531 C91.0611709,462.647914 91.6101838,462.573982 92.2969667,462.567562 C92.6080669,462.564605 92.8553679,462.562246 93.4169451,462.556883 C103.066102,462.464734 107.355936,462.438223 112.712903,462.459249 C142.572119,462.57761 172.289429,460.311563 201.871647,455.668196 C203.805585,455.364137 205.045213,455.622301 205.515799,456.181293 C205.708164,456.409797 205.811685,456.739942 205.799157,457.222683 C205.782809,457.852612 205.563501,458.657541 205.121205,459.604856 C203.094939,463.946103 200.851159,467.464696 198.218204,470.234504 C195.243483,473.363842 191.802579,475.494072 187.750775,476.571437 C180.7252,478.439514 175.408347,482.494181 172.725888,488.168204 C171.059592,491.695277 168.832336,493.867592 165.859851,495.140021 C163.389885,496.197338 160.60523,496.632511 156.046063,496.849516 C154.412111,496.927723 152.896581,496.934583 150.231628,496.899978 C150.083051,496.898049 149.963903,496.896464 149.696463,496.892878 C148.315844,496.874367 147.701457,496.867835 146.930733,496.866065 L146.923619,499.90557 C147.679046,499.907305 148.285795,499.913756 149.654941,499.932113 C149.922817,499.935705 150.042256,499.937294 150.191414,499.939231 C152.915631,499.974606 154.480204,499.967523 156.193721,499.885507 C158.464134,499.777441 160.167023,499.632242 161.781113,499.38 C163.76018,499.070721 165.495325,498.607207 167.076887,497.930189 C170.745043,496.359963 173.52387,493.649684 175.504628,489.456984 C177.781822,484.640189 182.353798,481.153571 188.546149,479.507046 C193.169451,478.27772 197.100096,475.844297 200.451879,472.318298 C203.33668,469.283554 205.75148,465.496776 207.906033,460.880676 C209.167081,458.179744 209.227678,455.844788 207.87211,454.234558 C206.57064,452.688589 204.281233,452.211799 201.391108,452.666193 C171.971882,457.283976 142.419244,459.537466 112.72512,459.41976 C107.349546,459.39866 103.050434,459.425229 93.3873687,459.517511 C92.8258383,459.522874 92.578568,459.525232 92.2677741,459.528186 C91.2876468,459.537348 90.4340604,459.652295 89.7158942,459.886841 C88.8470119,460.170609 88.1552398,460.636061 87.7120579,461.313299 C87.2303232,462.04945 87.1175908,462.927011 87.3397763,463.845488 C87.5272204,464.620351 87.9514292,465.432638 88.5990208,466.301098 C89.282324,467.216952 89.2892856,467.226274 89.5405218,467.560825 C91.9704046,470.796501 93.6284344,472.759018 95.5930484,474.536629 C98.1584419,476.857833 100.866663,478.40112 103.941689,479.126418 C107.775745,480.03066 110.933576,481.696993 113.633905,484.14239 C116.068774,486.347388 118.147655,489.189888 120.12577,492.880674 C121.85211,496.10366 124.494831,497.924743 128.289907,498.757754 C131.093045,499.37246 134.026248,499.715115 137.345326,499.861962 C139.836993,499.972202 141.822019,499.974108 146.282633,499.914285 C146.614097,499.90984 146.762733,499.907859 146.947439,499.905442 L146.906913,496.866193 L146.906913,496.866193 Z" id="Fill-4-Copy-2"></path>
            <path d="M108.717506,419.174675 C107.503032,419.174675 106.312844,419.169323 104.510347,419.157424 C104.288398,419.155959 104.110726,419.154764 103.711208,419.152058 C97.7651056,419.111785 95.1190238,419.118876 91.8041595,419.221866 C90.2654382,419.269708 89.3036532,419.037004 88.8122677,418.595094 C88.3372394,418.167895 88.1083831,417.345337 88.2315514,415.909975 C88.3461401,414.594391 88.3410349,413.207462 88.2381022,411.637895 C88.1444242,410.206305 88.3816176,409.312986 88.8669953,408.820567 C89.3588537,408.321573 90.2850476,408.04745 91.7749366,408.0767 C94.6447342,408.133772 96.9354645,408.128647 102.08348,408.079187 C103.083895,408.069576 103.528639,408.065428 104.084099,408.060714 C105.673186,408.04723 106.938929,408.040869 108.159012,408.041814 C142.398042,408.074085 172.940161,405.878533 201.934427,400.88958 C203.785566,400.571306 204.808535,400.643959 205.269406,400.987264 C205.718315,401.321658 205.996777,402.231382 205.982326,404.061318 C205.98142,404.178265 205.980984,404.234448 205.980523,404.293565 C205.96102,406.792716 205.935428,407.771986 205.844279,408.718225 C205.74553,409.743373 205.576687,410.383393 205.323896,410.796068 C204.867444,411.541212 203.792162,411.973508 200.762604,412.469982 C200.270413,412.55064 199.717164,412.63509 199.030365,412.735179 C184.348695,414.872885 169.513951,416.37144 154.513846,417.23929 C153.090754,417.321821 151.944493,417.389063 149.396618,417.539096 C146.910843,417.685472 145.820246,417.749469 144.446644,417.829221 C128.699418,418.743515 118.952352,419.145524 108.713096,419.174681 L108.721916,422.214183 C119.0324,422.184822 128.826064,421.780891 144.626159,420.863528 C146.000893,420.78371 147.092049,420.71968 149.578675,420.573254 C152.125637,420.423274 153.271283,420.356069 154.692943,420.273621 C169.781765,419.400639 184.70568,417.893075 199.476722,415.742356 C200.180327,415.639818 200.750573,415.552774 201.26335,415.468742 C203.102896,415.167284 204.314013,414.883589 205.290429,414.49104 C206.491322,414.008244 207.356717,413.336403 207.946906,412.372935 C208.482621,411.498396 208.759833,410.447588 208.898604,409.006964 C209.001648,407.937238 209.028355,406.915299 209.048631,404.317063 C209.049093,404.257864 209.049529,404.201601 209.050434,404.084879 C209.07174,401.386819 208.528493,399.612048 207.113361,398.55791 C206.394178,398.022188 205.518046,397.74208 204.481704,397.668478 C203.616278,397.607014 202.621114,397.686563 201.409567,397.894869 C172.604419,402.851281 142.235031,405.034416 108.161671,405.002301 C106.930317,405.001348 105.655665,405.007753 104.057819,405.021312 C103.500814,405.026039 103.055298,405.030194 102.053725,405.039817 C96.9361602,405.088984 94.6657212,405.094063 91.836124,405.037791 C89.5756659,404.993412 87.8466252,405.505151 86.6717923,406.697028 C85.4889184,407.897063 85.0314241,409.620081 85.1763427,411.834733 C85.2700037,413.26292 85.2745655,414.502245 85.1745437,415.6506 C84.9776007,417.945693 85.4622126,419.687491 86.7499775,420.845596 C87.9436106,421.919047 89.6424766,422.330087 91.9003736,422.259885 C95.1631397,422.158513 97.7831957,422.151492 103.690232,422.1915 C104.089927,422.194207 104.267717,422.195404 104.489904,422.196871 C106.298682,422.20881 107.494653,422.214189 108.717506,422.214189 L108.717506,419.174675 L108.717506,419.174675 Z" id="Fill-7-Copy"></path>
            <path d="M113.068089,435.406048 C142.546738,435.362171 171.762227,433.127798 200.7202,428.689021 C200.797523,428.677153 200.877815,428.664674 200.970275,428.650182 C201.025366,428.641548 201.075102,428.633722 201.164307,428.619664 C203.104583,428.313895 203.885761,428.270004 204.529163,428.481211 C204.833009,428.580953 205.054148,428.741496 205.245872,429.015359 C205.512111,429.395658 205.719158,429.991751 205.836452,430.845755 C206.319599,434.363543 206.266356,436.406662 205.707249,437.592805 C205.225416,438.615013 204.218388,439.193742 202.077217,439.543321 C187.473418,441.931582 172.151288,443.510986 153.571088,444.718197 C135.311781,445.905124 116.316612,446.463858 92.9689325,446.63747 C90.658418,446.653879 89.4250408,446.261251 88.8380534,445.534106 C88.2730624,444.83421 88.0467632,443.557566 88.1399299,441.296231 C88.2338192,439.012083 88.2841647,438.177351 88.3948285,437.386757 C88.5050796,436.599112 88.6520438,436.177617 88.824069,435.976273 C88.960802,435.816237 89.2233477,435.6932 89.7999456,435.595133 C90.4764953,435.480067 91.3874729,435.436068 93.1508883,435.42006 C96.1033718,435.393784 99.1399637,435.386306 103.099503,435.390919 C104.195714,435.392197 105.073034,435.393799 107.046565,435.397838 C110.056033,435.403997 111.39344,435.40605 113.065784,435.40605 L113.065784,432.366536 C111.396257,432.366536 110.060258,432.364485 107.052903,432.35833 C105.078462,432.35429 104.200536,432.352686 103.103112,432.351408 C99.1340706,432.346783 96.0879658,432.354285 93.12305,432.380671 C91.1935273,432.398187 90.1748397,432.447389 89.280783,432.599448 C88.0535231,432.808178 87.1490032,433.232063 86.4821289,434.012593 C85.8602612,434.740447 85.5385298,435.663176 85.3557083,436.969272 C85.2256707,437.898273 85.1728845,438.773474 85.0742765,441.17242 C85.0181763,442.534078 85.0609255,443.627756 85.2294964,444.578732 C85.4307813,445.71426 85.817228,446.658686 86.4418436,447.432444 C87.7314511,449.029977 89.8340994,449.699325 92.9914449,449.676902 C116.394143,449.502881 135.44516,448.942504 153.771936,447.751191 C172.444288,446.537993 187.861159,444.948823 202.57655,442.542312 C205.619583,442.045491 207.505513,440.961665 208.487289,438.878832 C209.369138,437.007993 209.434545,434.498075 208.87664,430.435971 C208.519681,427.836999 207.385402,426.216775 205.494248,425.595974 C204.744768,425.349946 203.933315,425.278448 202.994174,425.331214 C202.34744,425.367552 201.844444,425.434749 200.682285,425.617894 C200.59389,425.631825 200.544811,425.639547 200.490813,425.64801 C200.401344,425.662033 200.324158,425.674029 200.250724,425.685301 C171.447247,430.100396 142.387056,432.322892 113.063479,432.366538 L113.068089,435.406048 L113.068089,435.406048 Z" id="Fill-9-Copy"></path>
            <path d="M107.821621,391.364699 C106.577206,391.364699 105.578823,391.356028 103.329125,391.329979 C103.325466,391.329936 103.325466,391.329936 103.321806,391.329894 C98.1310485,391.269791 95.8124013,391.27823 92.9101713,391.42147 C90.9319712,391.519386 89.7125332,391.240298 89.0596973,390.643743 C88.4031938,390.043837 88.0801431,388.890692 88.1821864,386.933611 C88.3273667,384.152174 88.3373619,381.935215 88.2809286,376.95676 C88.2738183,376.329504 88.2707248,376.050301 88.2671321,375.701951 C88.2430648,373.368355 88.2418669,371.773366 88.2721039,370.172346 C88.3318491,366.980258 87.2367003,364.628084 84.6897314,362.869324 C73.2028194,354.939027 68.3799287,343.608691 68.912621,328.099282 C69.2474896,318.330286 67.7572907,308.584364 64.5929411,298.128705 C63.232723,293.634266 61.5672628,289.012999 59.5312471,283.989616 C57.8682397,279.886542 56.0619044,275.748845 53.5398993,270.187813 C46.8517152,255.442091 38.4623278,240.845077 28.0709474,225.480078 C9.50099145,198.025446 1.18015294,167.923242 3.50713104,135.7624 C6.33055286,96.7330798 22.9770177,63.8982897 52.9653353,38.0596776 C83.2974131,11.9227065 118.740626,0.140791516 157.631655,3.64294575 C213.205936,8.65122858 253.733954,36.7186031 278.08806,86.9783371 C287.874762,107.172055 292.025575,129.148274 290.810761,152.675847 C289.439702,179.244482 280.684452,203.971065 264.769531,227.46639 C255.156377,241.659839 247.46687,254.681041 241.25427,267.660321 C234.194067,282.4104 229.129512,296.972269 226.096395,311.831666 C224.653176,318.897281 224.116791,326.213551 224.428027,333.844057 C224.868045,344.702599 220.459715,353.757832 211.606496,360.821388 C207.397576,364.179911 205.736903,367.764513 205.814446,373.125424 C205.825827,373.928683 205.841043,374.711593 205.86214,375.633025 C205.869287,375.945212 205.903983,377.389059 205.912157,377.757579 C205.945933,379.280509 205.951278,380.182449 205.924034,380.942702 C205.869538,382.463424 205.68397,383.140825 205.369788,383.448704 C205.034739,383.777033 204.272642,384.020098 202.562279,384.26071 C202.157521,384.317651 201.700694,384.375233 201.081443,384.448469 C200.781704,384.483918 199.569875,384.624253 199.280868,384.658209 C197.570843,384.859119 196.199342,385.037205 194.670374,385.266768 C181.105128,387.303644 166.905026,388.735503 151.368778,389.71249 C138.360026,390.530537 124.864298,391.017728 107.790129,391.365019 L107.853112,394.403893 C124.967421,394.055784 138.503833,393.567126 151.56315,392.745899 C167.183458,391.763625 181.470749,390.322975 195.130156,388.27196 C196.621664,388.048021 197.962364,387.873935 199.642221,387.676569 C199.927337,387.64307 201.140762,387.502551 201.445147,387.466552 C202.085054,387.390873 202.562149,387.330736 202.993656,387.270032 C204.070419,387.118555 204.849894,386.963351 205.512776,386.75193 C206.340586,386.487906 206.99923,386.127297 207.527511,385.609613 C208.545627,384.611919 208.910395,383.280365 208.990302,381.050539 C209.02023,380.215409 209.014623,379.26918 208.979616,377.690812 C208.971367,377.318869 208.936635,375.87354 208.929551,375.564102 C208.908639,374.650754 208.893586,373.876207 208.882337,373.082319 C208.81817,368.646128 210.065348,365.954064 213.531091,363.188563 C223.121657,355.536713 227.973855,345.569724 227.493742,333.721739 C227.192134,326.327312 227.710713,319.253919 229.103686,312.434297 C232.085122,297.828088 237.068854,283.498607 244.026586,268.962608 C250.167961,256.13213 257.783012,243.23701 267.317323,229.159969 C283.532749,205.221007 292.474602,179.96742 293.874957,152.831074 C295.115284,128.809385 290.868968,106.32753 280.854035,85.6628844 C256.034117,34.4418497 214.563202,5.72147928 157.909514,0.615921738 C118.172977,-2.96237095 81.9056794,9.09348337 50.9517509,35.7662996 C20.3529029,62.1309585 3.32839071,95.7114388 0.446781189,135.545111 C-1.929663,168.389618 6.57642063,199.161981 25.5220037,227.171957 C35.823096,242.403453 44.1288267,256.854909 50.7412095,271.433509 C53.2476897,276.960309 55.0392819,281.064234 56.683988,285.122154 C58.6875312,290.065419 60.3224666,294.601986 61.653989,299.001609 C64.7280691,309.158999 66.1688925,318.582005 65.8461921,327.996023 C65.5733753,335.939121 66.6450407,342.878623 69.2243108,348.938059 C72.0016238,355.462753 76.5201676,360.934037 82.9353563,365.362935 C84.6025476,366.514182 85.2459793,367.896152 85.204436,370.115743 C85.1735305,371.75216 85.1747474,373.372497 85.1990923,375.733004 C85.2026991,376.082721 85.2058002,376.362609 85.2129221,376.99089 C85.2686326,381.905579 85.2588286,384.080121 85.1180757,386.776736 C84.9735092,389.549366 85.5366602,391.559559 86.9794054,392.877926 C88.3583227,394.137967 90.341749,394.591906 93.0630622,394.457207 C95.8813331,394.318112 98.1580564,394.309825 103.285948,394.3692 C103.289607,394.369243 103.289607,394.369243 103.293266,394.369285 C105.55492,394.395472 106.561266,394.404213 107.821621,394.404213 L107.821621,391.364699 L107.821621,391.364699 Z" id="Fill-1-Copy-2"></path>
        </g>
    </g>
</svg>