<?xml version="1.0" encoding="UTF-8" standalone="no"?>
<svg width="50px" height="87px" viewBox="0 0 50 87" version="1.1" xmlns="http://www.w3.org/2000/svg" xmlns:xlink="http://www.w3.org/1999/xlink">
    <!-- Generator: Sketch 3.8.3 (29802) - http://www.bohemiancoding.com/sketch -->
    <title>Group</title>
    <desc>Created with Sketch.</desc>
    <defs></defs>
    <g id="Homepage" stroke="none" stroke-width="1" fill="none" fill-rule="evenodd">
        <g id="Group" fill="#C2C2C2">
            <path d="M24.9583215,86.1659666 C23.9054763,86.1798777 22.8538521,86.203307 21.8144361,85.9731631 C21.2682361,85.8521117 20.8597458,85.6000028 20.5879887,85.0877312 C19.9397272,83.8664796 19.1002834,82.9183256 17.6367506,82.569815 C16.5135856,82.3023306 15.8162466,81.3436822 15.1526026,80.4455595 C14.778784,79.9393893 15.0043936,79.6965545 15.5733011,79.6911853 C16.7431019,79.6799588 17.9131468,79.667756 19.0831918,79.672393 C24.2053126,79.6928937 29.2949592,79.2997209 34.3535968,78.498 C35.1884014,78.3654781 35.557825,78.7606033 35.1920639,79.5515858 C34.5408723,80.9602717 33.6069362,82.2164232 32.0379235,82.6376623 C30.9152468,82.9390703 30.0582231,83.5865484 29.6277579,84.5059039 C28.9616722,85.9294772 27.8219039,86.1010479 26.5371008,86.1627938 C26.0118991,86.1881756 25.4844998,86.1671868 24.9583215,86.1659666" id="Fill-4"></path>
            <path d="M18.3355545,72.6390185 C17.3698768,72.6390185 16.4037107,72.6168095 15.4390096,72.6470723 C14.8093047,72.6668408 14.4989694,72.442066 14.5546393,71.7870222 C14.5746609,71.5549258 14.5705101,71.3186805 14.5553718,71.0856079 C14.514596,70.4564339 14.7907481,70.1747944 15.4309522,70.1874852 C16.3668416,70.2062775 17.3034636,70.1806517 18.2398414,70.1813838 C23.6254176,70.186509 28.9873097,69.8680171 34.3001244,68.9450008 C35.0255425,68.8190684 35.3099962,68.9762399 35.3038921,69.756728 C35.2926604,71.2193501 35.2946137,71.312091 33.8847975,71.5195378 C31.3415612,71.8934302 28.7856283,72.1528608 26.2162663,72.3029547 C23.5905018,72.4567094 20.9669348,72.6314528 18.3355545,72.6390185" id="Fill-7"></path>
            <path d="M19.0895157,74.9310862 C24.1237366,74.9235205 29.1284134,74.5393778 34.1035461,73.769384 C34.6326545,73.6873815 35.1734828,73.5587645 35.2836018,74.3682952 C35.4535416,75.6176131 35.2828693,76.0298222 34.4197414,76.1721063 C31.6513838,76.6292214 28.8647138,76.888652 26.0633937,77.0724255 C22.5903722,77.3003729 19.1180831,77.3796908 15.6399341,77.4058047 C14.686953,77.4126382 14.5118858,77.0250788 14.5453365,76.2052978 C14.5941698,75.005767 14.601739,74.9432889 15.6667924,74.9335267 C16.8075374,74.9232764 17.9487707,74.9310862 19.0895157,74.9310862" id="Fill-9"></path>
            <path d="M29.0615466,67.3156218 C26.3380029,67.579768 23.6047666,67.7174143 20.8679641,67.8008841 L20.8679641,38.3605566 L29.0615466,38.3605566 L29.0615466,67.3156216 Z M29.7570969,67.2453456 C30.9067507,67.1244543 32.0545822,66.979896 33.2001298,66.8062209 C35.6037029,66.4418467 35.3729657,66.9245876 35.33805,64.4364461 C35.3260858,63.6012896 35.5648805,63.0514335 36.2346286,62.5118277 C37.7697022,61.2752006 38.6159826,59.6436924 38.5346753,57.6177912 C38.4836445,56.3545621 38.5656844,55.1018273 38.816199,53.8634919 C39.8980999,48.5118521 42.4218029,43.7959758 45.4187001,39.3283035 C48.0959837,35.3375148 49.690878,31.0123706 49.9355326,26.2254743 C50.1403882,22.2195542 49.4708841,18.3429833 47.7248509,14.7053424 C43.5078546,5.91838324 36.4736675,0.983833572 26.8232383,0.105723393 C19.9919534,-0.515396786 13.8499499,1.61373973 8.65042844,6.1375447 C3.45945275,10.6535399 0.557292026,16.4068944 0.0662735823,23.2602051 C-0.341972483,28.9571828 1.14280283,34.2275523 4.32892897,38.9836977 C5.97851654,41.4464575 7.46793101,43.9958569 8.68168173,46.6977907 C10.1012646,49.8583039 11.4197627,53.0632353 11.2989004,56.6232667 C11.2114888,59.1929227 11.9378836,61.3559828 14.1212187,62.8779103 C14.4982115,63.1407576 14.6320146,63.4753572 14.623713,63.9231982 C14.6056447,64.8891682 14.6583846,65.8575788 14.6085747,66.8211082 C14.5660897,67.6438179 14.9154917,67.9152072 15.6968239,67.8761584 C16.544081,67.8339368 17.3952447,67.8666402 18.2446993,67.8666402 C18.8873858,67.8534412 19.5299837,67.8385305 20.1724138,67.8209733 L20.1724138,32.2117959 L20.8679641,32.2117959 L20.8679641,37.6712337 L29.0615466,37.6712337 L29.0615466,32.2117959 L29.7570969,32.2117959 L29.7570969,67.2453455 Z" id="Combined-Shape"></path>
        </g>
    </g>
</svg>